HIERARCHY
ROOT Hips
{
	OFFSET 0.000000 0.000000 0.000000 
	CHANNELS 6 Xposition Yposition Zposition Zrotation Yrotation Xrotation
	JOINT LeftUpLeg
	{
		OFFSET 1.363060 -1.794630 0.839290 
		CHANNELS 3 Zrotation Yrotation Xrotation
		JOINT LeftLeg
		{
			OFFSET 2.448110 -6.726130 0.000000 
			CHANNELS 3 Zrotation Yrotation Xrotation
			JOINT LeftFoot
			{
				OFFSET 2.562200 -7.039590 0.000000 
				CHANNELS 3 Zrotation Yrotation Xrotation
				JOINT LeftToeBase
				{
					OFFSET 0.157640 -0.433110 2.322550 
					CHANNELS 3 Zrotation Yrotation Xrotation
					End Site
					{
						OFFSET 0.000000 0.000000 0.000000 
					}
				}
			}
		}
	}
	JOINT RightUpLeg
	{
		OFFSET -1.305520 -1.794630 0.839290 
		CHANNELS 3 Zrotation Yrotation Xrotation
		JOINT RightLeg
		{
			OFFSET -2.542530 -6.985550 0.000000 
			CHANNELS 3 Zrotation Yrotation Xrotation
			JOINT RightFoot
			{
				OFFSET -2.568260 -7.056230 0.000000 
				CHANNELS 3 Zrotation Yrotation Xrotation
				JOINT RightToeBase
				{
					OFFSET -0.164730 -0.452590 2.363150 
					CHANNELS 3 Zrotation Yrotation Xrotation
					End Site
					{
						OFFSET 0.000000 0.000000 0.000000 
					}
				}
			}
		}
	}
	JOINT Spine
	{
		OFFSET 0.028270 2.035590 -0.193380 
		CHANNELS 3 Zrotation Yrotation Xrotation
		JOINT Spine1
		{
			OFFSET 0.056720 2.048850 -0.042750 
			CHANNELS 3 Zrotation Yrotation Xrotation
			JOINT Neck1
			{
				OFFSET -0.054170 1.746240 0.172020 
				CHANNELS 3 Zrotation Yrotation Xrotation
				JOINT Head
				{
					OFFSET 0.104070 1.761360 -0.123970 
					CHANNELS 3 Zrotation Yrotation Xrotation
					End Site
					{
						OFFSET 0.000000 0.000000 0.000000 
					}
				}
			}
			JOINT LeftArm
			{
				OFFSET 3.362410 1.200890 -0.311210 
				CHANNELS 3 Zrotation Yrotation Xrotation
				JOINT LeftForeArm
				{
					OFFSET 4.983000 -0.000000 -0.000000 
					CHANNELS 3 Zrotation Yrotation Xrotation
					JOINT LeftHand
					{
						OFFSET 3.483560 -0.000000 -0.000000 
						CHANNELS 3 Zrotation Yrotation Xrotation
						JOINT LeftHandIndex1
						{
							OFFSET 0.715260 -0.000000 -0.000000 
							CHANNELS 3 Zrotation Yrotation Xrotation
							End Site
							{
								OFFSET 0.000000 0.000000 0.000000 
							}
						}
					}
				}
			}
			JOINT RightArm
			{
				OFFSET -3.136600 1.374050 -0.404650 
				CHANNELS 3 Zrotation Yrotation Xrotation
				JOINT RightForeArm
				{
					OFFSET -5.241900 -0.000000 -0.000000 
					CHANNELS 3 Zrotation Yrotation Xrotation
					JOINT RightHand
					{
						OFFSET -3.444170 -0.000000 -0.000000 
						CHANNELS 3 Zrotation Yrotation Xrotation
						JOINT RightHandIndex1
						{
							OFFSET -0.622530 -0.000000 -0.000000 
							CHANNELS 3 Zrotation Yrotation Xrotation
							End Site
							{
								OFFSET 0.000000 0.000000 0.000000 
							}
						}
					}
				}
			}
		}
	}
}
MOTION
Frames: 15
Frame Time: 0.041667
8.198684 20.062710 28.367456 -6.646218 -2.923312 -20.006706 -76.382541 1.931436 27.322502 13.741194 3.367018 37.505465 -7.780894 -37.733486 -62.483952 0.263000 3.299200 9.112800 88.005401 5.854392 13.504361 -17.310216 -10.819528 50.461835 -5.403469 4.353368 -62.306748 -3.155400 10.942500 -32.086200 10.415098 -5.823652 85.891338 -15.879137 -0.192234 -27.202524 32.801652 -20.963407 27.380109 2.503000 -7.231900 5.048300 -104.296447 5.824443 24.976716 46.247181 -47.885715 -4.395136 -0.394263 3.952328 -5.981868 -7.125000 0.000000 0.000000 104.557211 1.307657 11.980979 -68.575268 66.229643 -17.657537 1.150616 -7.945476 14.410356 7.125000 0.000000 0.000000 
8.207426 20.039663 28.352573 -3.034140 -1.967404 -14.718005 -81.329336 -5.425344 20.966922 13.527649 4.018514 39.933879 -6.656631 -36.997819 -63.071627 0.063500 1.625400 4.471500 88.501556 12.055809 10.071314 -18.532146 -9.418042 51.580266 -5.092283 3.922111 -62.752042 -4.217100 12.443800 -37.320700 2.026050 -0.355162 86.688938 -11.133567 1.801283 -27.805588 34.029306 -21.118522 28.035461 2.574200 -7.075700 5.161800 -104.179440 5.636167 26.099302 46.064671 -47.224332 -4.345778 -0.223169 3.916386 -6.960420 -7.125000 0.000000 0.000000 104.143532 1.464693 12.250795 -68.494978 66.137119 -17.441241 1.346847 -7.836455 14.374553 7.125000 0.000000 0.000000 
8.213712 20.021745 28.338051 -1.122199 -1.506567 -11.474505 -83.376081 -9.723344 17.537329 13.263364 4.361596 41.437729 -6.501025 -37.301651 -62.895577 0.045700 1.379200 3.792700 88.633277 16.239279 7.691984 -18.945391 -8.552110 52.521442 -4.605059 4.483687 -63.659962 -3.387600 11.297600 -33.290200 -3.014412 2.852675 86.466112 -8.272439 2.890432 -27.871432 33.852817 -20.789695 28.183577 2.552900 -6.886500 5.169400 -104.098183 5.677728 26.476002 46.228354 -47.067886 -4.328925 -0.344404 3.928968 -7.339007 -7.125000 0.000000 0.000000 104.065080 1.515322 12.362600 -68.389071 66.095533 -17.349740 1.327155 -7.831530 14.307699 7.125000 0.000000 0.000000 
8.201791 20.015242 28.325985 -0.685303 -1.579332 -11.587302 -82.994045 -9.384260 17.632762 12.998471 4.488785 41.989339 -7.417013 -38.490842 -61.894014 0.189100 2.800500 7.723700 88.236539 16.768750 7.406247 -18.691500 -8.599546 53.828136 -4.383788 5.088996 -64.691100 -2.667600 10.136500 -29.419900 -4.087645 3.667575 86.345453 -7.860771 3.206198 -28.183645 33.274085 -20.485957 29.081111 2.539200 -6.672300 5.203900 -103.858740 5.588969 26.801278 46.409877 -47.175800 -4.275991 -0.627475 3.879679 -6.837143 -7.125000 0.000000 0.000000 104.320323 1.242339 11.882103 -68.096852 65.973589 -17.129723 1.318800 -7.725797 14.522857 7.125000 0.000000 0.000000 
8.197456 20.003683 28.312474 0.537607 -1.394609 -10.030100 -83.546227 -11.241900 15.922950 12.721084 4.789204 43.139621 -7.961163 -39.242050 -61.056916 0.292300 3.476800 9.609100 87.954929 19.163752 5.996267 -18.665855 -8.224558 54.962682 -4.046483 5.691280 -65.609153 -2.343000 9.546700 -27.521000 -7.364916 5.834863 85.818068 -6.077477 3.980897 -28.253740 32.638348 -20.191600 29.654806 2.493000 -6.511500 5.230100 -103.705350 5.496556 27.195557 46.516081 -47.124487 -4.233625 -0.782122 3.825914 -6.753141 -7.125000 0.000000 0.000000 104.399907 1.120325 11.682904 -67.840819 65.875621 -16.945625 1.364688 -7.701785 14.600300 7.125000 0.000000 0.000000 
8.191026 19.992701 28.297880 1.367261 -1.212998 -9.026598 -83.599621 -12.547739 14.609679 12.483119 5.085390 44.410043 -8.754128 -40.036523 -59.957339 0.454600 4.325400 11.993900 87.692443 20.704265 5.096793 -18.500880 -8.001243 55.848565 -3.777586 6.391084 -66.450254 -2.071300 9.013000 -25.836200 -9.687195 7.343723 85.311388 -4.842509 4.484109 -28.315220 31.815433 -19.816430 30.349599 2.438600 -6.318800 5.260200 -103.546636 5.340768 27.459078 46.628301 -47.162415 -4.190401 -0.954138 3.753258 -6.528698 -7.125000 0.000000 0.000000 104.521467 0.982663 11.508468 -67.505774 65.756370 -16.753316 1.397251 -7.724055 14.646464 7.125000 0.000000 0.000000 
8.183584 19.981791 28.281841 1.877801 -0.985524 -8.327301 -83.310039 -13.725034 13.351408 12.300860 5.409690 45.949935 -9.669036 -40.704766 -58.694046 0.635300 5.099500 14.192700 87.543867 21.550541 4.625006 -18.294825 -7.871398 56.389955 -3.592483 7.066587 -67.141161 -1.911200 8.678600 -24.795100 -11.223022 8.311475 84.929146 -4.031780 4.760169 -28.365593 30.899451 -19.387805 31.074520 2.378300 -6.109300 5.295200 -103.397080 5.096520 27.610791 46.717734 -47.259261 -4.149112 -1.109594 3.665251 -6.238843 -7.125000 0.000000 0.000000 104.642438 0.867235 11.425958 -67.089910 65.610730 -16.549265 1.409271 -7.789614 14.646233 7.125000 0.000000 0.000000 
8.176359 19.970882 28.264212 2.111402 -0.692666 -7.724934 -82.770210 -15.100268 11.892535 12.185665 5.779609 47.840013 -10.589559 -41.123597 -57.374978 0.771500 5.608700 15.653100 87.560955 21.900743 4.463358 -18.109415 -7.795229 56.548559 -3.491838 7.634306 -67.663115 -1.833800 8.510900 -24.276800 -12.086190 8.829739 84.713370 -3.578682 4.842961 -28.397360 29.919724 -18.925016 31.821928 2.311500 -5.889800 5.336400 -103.264247 4.759453 27.670006 46.779951 -47.403422 -4.113231 -1.237610 3.569648 -5.916330 -7.125000 0.000000 0.000000 104.757894 0.789328 11.410656 -66.619581 65.445059 -16.342923 1.394505 -7.896651 14.621180 7.125000 0.000000 0.000000 
8.169568 19.961128 28.245138 2.055537 -0.333556 -7.177567 -81.992679 -16.772718 10.161111 12.140289 6.197282 50.075478 -11.475180 -41.272307 -56.043049 0.835700 5.831600 16.296500 87.742753 21.803336 4.564298 -17.972436 -7.778030 56.352526 -3.493986 7.996468 -68.041500 -1.809700 8.457900 -24.113900 -12.212670 8.855971 84.724283 -3.485190 4.722175 -28.425419 28.895508 -18.410737 32.601390 2.243000 -5.648000 5.385500 -103.163024 4.348722 27.597688 46.827890 -47.604626 -4.089874 -1.336169 3.477635 -5.583131 -7.125000 0.000000 0.000000 104.844564 0.760280 11.513524 -66.071976 65.240592 -16.116690 1.340682 -8.030492 14.607187 7.125000 0.000000 0.000000 
8.162776 19.953614 28.225053 1.737496 0.074338 -6.651480 -80.973174 -18.790675 8.107319 12.163902 6.669724 52.616918 -12.335077 -41.176460 -54.677924 0.852400 5.888200 16.460400 88.059942 21.341289 4.853639 -17.894889 -7.832407 55.873213 -3.610031 8.076562 -68.295250 -1.839100 8.522600 -24.312900 -11.591404 8.440479 84.954534 -3.795562 4.446564 -28.468812 27.815611 -17.935478 33.395608 2.167800 -5.437900 5.437600 -103.057000 3.858638 27.558874 46.842239 -47.835051 -4.080292 -1.397697 3.397837 -5.254375 -7.125000 0.000000 0.000000 104.942155 0.736094 11.577598 -65.447041 64.978416 -15.843987 1.245786 -8.156824 14.669954 7.125000 0.000000 0.000000 
8.155840 19.949929 28.204607 1.347260 0.518762 -6.017119 -79.774735 -21.215279 5.628159 12.254415 7.241521 55.367582 -13.197225 -40.869729 -53.173417 0.905600 6.064300 16.971000 88.430493 20.817115 5.158519 -17.863252 -7.889609 55.260140 -3.794652 7.968232 -68.567657 -1.870400 8.590700 -24.523100 -10.698167 7.883006 85.253377 -4.204852 4.145961 -28.500063 26.533739 -17.437209 34.207707 2.075700 -5.249200 5.490800 -102.971189 3.301076 27.557745 46.812578 -48.073488 -4.084592 -1.412277 3.331260 -4.946568 -7.125000 0.000000 0.000000 105.040260 0.729828 11.596473 -64.732099 64.656597 -15.507244 1.133849 -8.262846 14.843524 7.125000 0.000000 0.000000 
8.148543 19.950074 28.184016 0.863036 0.980537 -5.324379 -78.346107 -23.934762 2.798130 12.439301 7.908798 58.215068 -14.063127 -40.349575 -51.497076 1.072400 6.582900 18.485400 88.866008 20.240477 5.493228 -17.860491 -7.949313 54.518126 -4.033132 7.732884 -68.851377 -1.882700 8.617300 -24.605500 -9.498096 7.167200 85.624442 -4.735694 3.826171 -28.515272 24.894675 -16.864622 34.990053 1.953400 -5.084400 5.542900 -102.887911 2.657343 27.644195 46.724823 -48.311497 -4.101640 -1.371483 3.272512 -4.695452 -7.125000 0.000000 0.000000 105.148810 0.750589 11.551842 -63.929719 64.280092 -15.105271 1.035387 -8.352004 15.126797 7.125000 0.000000 0.000000 
8.140451 19.954120 28.163425 0.299891 1.470137 -4.656062 -76.668869 -26.819355 -0.277675 12.727486 8.655878 61.046787 -14.825819 -39.577401 -49.772973 1.353400 7.364500 20.799900 89.356201 19.520925 5.925366 -17.881263 -8.004090 53.624103 -4.312816 7.406949 -69.142694 -1.871900 8.593900 -24.533000 -8.031151 6.311930 86.041393 -5.358932 3.500659 -28.514011 22.762546 -16.158427 35.747629 1.791900 -4.934800 5.592200 -102.806398 1.930891 27.841187 46.576130 -48.539973 -4.127383 -1.275526 3.210772 -4.493734 -7.125000 0.000000 0.000000 105.281673 0.795928 11.403877 -63.056505 63.857362 -14.645516 0.973265 -8.430489 15.508001 7.125000 0.000000 0.000000 
8.131348 19.961128 28.142472 -0.312583 1.934847 -3.962595 -74.722636 -29.804101 -3.593999 13.088288 9.453128 63.778927 -15.347869 -38.558833 -48.229729 1.674500 8.152400 23.178100 89.901310 18.857901 6.344169 -17.926076 -8.052175 52.638779 -4.620297 6.996621 -69.406450 -1.857700 8.563200 -24.438100 -6.458647 5.430747 86.437805 -6.001197 3.215901 -28.511808 20.157205 -15.305415 36.538418 1.595600 -4.790700 5.639100 -102.749613 1.159572 28.104272 46.388105 -48.763048 -4.159035 -1.142503 3.141167 -4.295333 -7.125000 0.000000 0.000000 105.432992 0.848496 11.148853 -62.140048 63.388277 -14.143150 0.928565 -8.492553 15.942633 7.125000 0.000000 0.000000 
8.120872 19.970376 28.121014 -0.936758 2.367274 -3.253913 -72.535319 -32.744466 -7.053574 13.473449 10.250388 66.309285 -15.600566 -37.405534 -46.986870 1.963400 8.789500 25.138900 90.485074 18.371059 6.704278 -17.989520 -8.085109 51.633128 -4.936957 6.536694 -69.639855 -1.828800 8.500100 -24.243600 -4.956914 4.581431 86.764605 -6.540129 2.970704 -28.506401 17.400278 -14.349654 37.382682 1.391300 -4.631300 5.693100 -102.757244 0.399479 28.228165 46.204161 -49.019065 -4.203331 -0.987893 3.069367 -4.084554 -7.125000 0.000000 0.000000 105.554284 0.928725 10.944081 -61.208903 62.890799 -13.632873 0.872958 -8.540123 16.383004 7.125000 0.000000 0.000000 
